#!OML:ASF H:\Dans Jumps\Project 1\Capture day 1\Session 1\subject.ASF
:FULLY-SPECIFIED
:DEGREES
93
root 0.138027 17.5865 -13.6523 7.64391 0.419336 -1.40544
lowerback -2.55466 -0.708138 0.239802
upperback 2.62727 -1.02378 1.78214
thorax 4.16875 -0.531253 1.64107
lowerneck -13.232 0.558935 -2.0417
upperneck 32.483 1.01936 1.05612
head 13.0406 0.333595 0.918894
rclavicle -4.22417e-015 -2.78299e-015
rhumerus -24.3655 -25.6463 -75.5344
rradius 26.9421
rwrist 31.1996
rhand -18.266 -26.143
rfingers 7.12502
rthumb 8.01358 -55.9711
lclavicle -4.22417e-015 -2.78299e-015
lhumerus -20.14 3.5188 86.1426
lradius 20.6611
lwrist 1.28556
lhand -24.3222 -3.05168
lfingers 7.12502
lthumb 2.16622 26.9171
rfemur -13.4093 -3.7382 20.9462
rtibia 20.8097
rfoot -13.9885 -3.04006
rtoes 11.5376
lfemur -13.1294 7.36202 -19.2586
ltibia 18.7158
lfoot -10.9905 5.79873
ltoes -0.562224
94
root 0.137591 17.5864 -13.6534 7.63268 0.421058 -1.39959
lowerback -2.55089 -0.706905 0.238309
upperback 2.62356 -1.022 1.78352
thorax 4.16275 -0.530412 1.64349
lowerneck -13.2386 0.561945 -2.04466
upperneck 32.4854 1.02643 1.05153
head 13.043 0.335753 0.918754
rclavicle -2.88238e-015 -1.15295e-014
rhumerus -24.3466 -25.5707 -75.5529
rradius 26.9405
rwrist 31.1723
rhand -18.2596 -26.1539
rfingers 7.12502
rthumb 8.01977 -55.9818
lclavicle -2.88238e-015 -1.15295e-014
lhumerus -20.1228 3.51827 86.1163
lradius 20.6582
lwrist 1.28457
lhand -24.3386 -3.06759
lfingers 7.12502
lthumb 2.15032 26.9013
rfemur -13.4062 -3.73249 20.9414
rtibia 20.8206
rfoot -13.9891 -3.0507
rtoes 11.5218
lfemur -13.1214 7.36003 -19.2624
ltibia 18.7171
lfoot -10.989 5.79498
ltoes -0.557194
95
root 0.137074 17.5863 -13.6544 7.62122 0.423473 -1.39342
lowerback -2.54556 -0.705906 0.236591
upperback 2.61732 -1.02043 1.78418
thorax 4.15325 -0.529652 1.64532
lowerneck -13.2422 0.56577 -2.04389
upperneck 32.4892 1.03449 1.0442
head 13.0453 0.338432 0.917038
rclavicle 7.95139e-015 -1.82882e-014
rhumerus -24.335 -25.5038 -75.5678
rradius 26.9371
rwrist 31.1559
rhand -18.2495 -26.1762
rfingers 7.12502
rthumb 8.02952 -56.0036
lclavicle 7.95139e-015 -1.82882e-014
lhumerus -20.1142 3.51536 86.0907
lradius 20.6567
lwrist 1.28241
lhand -24.3512 -3.07061
lfingers 7.12502
lthumb 2.13818 26.8984
rfemur -13.4024 -3.72533 20.9363
rtibia 20.832
rfoot -13.9902 -3.06338
rtoes 11.5057
lfemur -13.1117 7.35832 -19.2658
ltibia 18.716
lfoot -10.9874 5.78989
ltoes -0.551659
96
root 0.136478 17.5862 -13.6552 7.61031 0.428191 -1.38697
lowerback -2.54235 -0.70481 0.235541
upperback 2.61027 -1.01874 1.7838
thorax 4.14406 -0.528789 1.64567
lowerneck -13.2423 0.56943 -2.04057
upperneck 32.4926 1.0422 1.03489
head 13.0467 0.341019 0.914018
rclavicle 6.95746e-015 -7.55382e-015
rhumerus -24.3244 -25.4657 -75.576
rradius 26.921
rwrist 31.1665
rhand -18.2379 -26.1991
rfingers 7.12502
rthumb 8.04068 -56.0261
lclavicle 6.95746e-015 -7.55382e-015
lhumerus -20.1074 3.50873 86.0664
lradius 20.6532
lwrist 1.27805
lhand -24.3539 -3.0437
lfingers 7.12502
lthumb 2.13554 26.9254
rfemur -13.3982 -3.71956 20.9314
rtibia 20.8433
rfoot -13.9921 -3.07834
rtoes 11.4864
lfemur -13.1017 7.35752 -19.2688
ltibia 18.7131
lfoot -10.9859 5.78079
ltoes -0.540508
